<?xml version="1.0" encoding="utf-8"?>
<!-- Generator: Adobe Illustrator 19.2.1, SVG Export Plug-In . SVG Version: 6.00 Build 0)  -->
<svg version="1.1" id="layer" xmlns="http://www.w3.org/2000/svg" xmlns:xlink="http://www.w3.org/1999/xlink" x="0px" y="0px"
	 viewBox="0 0 652 652" style="enable-background:new 0 0 652 652;" xml:space="preserve">
<style type="text/css">
	.st0{fill:#FF7700;}
	.st1{fill:#FFFFFF;}
</style>
<circle class="st0" cx="99" cy="326" r="72.9"/>
<path class="st1" d="M96.7,297.5L96.7,297.5c5,0,9.1,4.1,9.1,9.1v50.1c0,5-4.1,9.1-9.1,9.1l0,0c-5,0-9.1-4.1-9.1-9.1v-50.1
	C87.6,301.6,91.7,297.5,96.7,297.5z M67.1,314.6L67.1,314.6c5,0,9.1,4.1,9.1,9.1v33c0,5-4.1,9.1-9.1,9.1l0,0c-5,0-9.1-4.1-9.1-9.1
	v-33C58,318.7,62,314.6,67.1,314.6z M126.3,281.6L126.3,281.6c5,0,9.1,4.1,9.1,9.1v66.1c0,5-4.1,9.1-9.1,9.1l0,0
	c-5,0-9.1-4.1-9.1-9.1v-66.1C117.2,285.7,121.3,281.6,126.3,281.6z"/>
<path d="M210.1,295.2c-1.3,0-2.7-0.3-3.9-0.8c-1.2-0.5-2.3-1.2-3.2-2.2c-0.9-0.9-1.6-2-2.2-3.2c-0.5-1.2-0.8-2.5-0.8-4
	c0-1.4,0.3-2.8,0.8-4c0.5-1.2,1.2-2.3,2.2-3.2c0.9-0.9,2-1.7,3.2-2.2c1.2-0.5,2.6-0.8,3.9-0.8c2.8,0,5.2,1,7.2,2.9c2,2,3,4.3,3,7.1
	c0,2.8-1,5.2-3,7.1C215.3,294.2,212.9,295.2,210.1,295.2z M202.3,362.5v-58.8H218v58.8L202.3,362.5L202.3,362.5z M269.1,363.8v-8.4
	c-1.4,2.5-3.7,4.6-6.7,6.4c-3,1.8-6.8,2.6-11.3,2.6c-3.8,0-7.3-0.8-10.7-2.3c-3.4-1.6-6.4-3.8-9-6.5c-2.6-2.8-4.7-6.1-6.2-9.9
	c-1.5-3.8-2.3-8-2.3-12.6c0-4.6,0.8-8.8,2.3-12.6c1.5-3.8,3.6-7.1,6.2-9.9c2.6-2.7,5.6-4.9,9-6.5c3.4-1.6,7-2.4,10.7-2.3
	c4.5,0,8.2,0.9,11.3,2.6c3,1.8,5.3,3.9,6.7,6.4l0-7.1h15.7v84.7h-15.7L269.1,363.8L269.1,363.8z M254.3,349.9c2.1,0,4.1-0.4,5.9-1.1
	c1.9-0.8,3.6-1.9,5-3.3c1.4-1.4,2.6-3.2,3.5-5.3s1.3-4.4,1.3-7.1s-0.4-5-1.3-7.1s-2-3.8-3.5-5.3c-1.4-1.4-3.1-2.5-5-3.3
	c-1.9-0.8-3.9-1.1-5.9-1.1c-2.1,0-4.1,0.4-5.9,1.2c-1.9,0.8-3.6,1.9-5,3.4c-1.4,1.4-2.6,3.2-3.5,5.3s-1.3,4.4-1.3,7
	c0,2.6,0.4,4.9,1.3,7s2,3.8,3.5,5.3c1.4,1.4,3.1,2.6,5,3.4C250.3,349.5,252.3,349.9,254.3,349.9z M340.9,301.8
	c4.6,0,8.7,0.8,12.5,2.3c3.8,1.6,7.1,3.7,9.8,6.5c2.8,2.8,4.9,6.1,6.5,9.9c1.6,3.8,2.3,8,2.3,12.6s-0.8,8.8-2.3,12.6
	c-1.6,3.8-3.7,7.1-6.5,9.9c-2.8,2.8-6,4.9-9.8,6.5c-3.8,1.6-8,2.3-12.5,2.3c-4.6,0-8.7-0.8-12.5-2.3c-3.8-1.6-7.1-3.7-9.8-6.5
	c-2.8-2.8-4.9-6.1-6.5-9.9c-1.6-3.8-2.3-8-2.3-12.6c0-4.6,0.8-8.8,2.3-12.6c1.6-3.8,3.7-7.1,6.5-9.9c2.8-2.8,6-4.9,9.8-6.5
	C332.2,302.6,336.4,301.8,340.9,301.8z M340.9,349.9c2,0,3.9-0.4,5.8-1.1c1.9-0.8,3.6-1.9,5-3.3c1.4-1.4,2.6-3.2,3.4-5.3
	c0.8-2.1,1.3-4.4,1.3-7.1s-0.4-5-1.3-7.1c-0.8-2.1-2-3.8-3.4-5.3c-1.4-1.4-3.1-2.5-5-3.3c-1.8-0.8-3.8-1.1-5.8-1.1
	c-2.1,0-4,0.4-5.9,1.1c-1.8,0.8-3.5,1.9-4.9,3.3c-1.4,1.4-2.6,3.2-3.4,5.3c-0.8,2.1-1.3,4.4-1.3,7.1s0.4,5,1.3,7.1
	c0.8,2.1,2,3.8,3.4,5.3c1.4,1.4,3.1,2.5,4.9,3.3C336.9,349.5,338.9,349.9,340.9,349.9z M375.6,303.7h15.7v7.1
	c1.4-2.5,3.7-4.6,6.7-6.4c3-1.8,6.8-2.6,11.3-2.6c3.8,0,7.3,0.8,10.7,2.3c3.4,1.6,6.4,3.8,9,6.5c2.6,2.8,4.7,6.1,6.2,9.9
	c1.5,3.8,2.3,8,2.3,12.6s-0.8,8.8-2.3,12.6c-1.5,3.8-3.6,7.1-6.2,9.9c-2.6,2.7-5.6,4.9-9,6.5c-3.4,1.6-7,2.4-10.7,2.3
	c-4.5,0-8.2-0.9-11.3-2.6c-3-1.8-5.3-3.9-6.7-6.4v33h-15.7L375.6,303.7L375.6,303.7z M406.1,349.9c2.1,0,4.1-0.4,5.9-1.2
	c1.9-0.8,3.6-1.9,5-3.4c1.4-1.4,2.6-3.2,3.5-5.3c0.9-2.1,1.3-4.4,1.3-7c0-2.6-0.4-4.9-1.3-7c-0.9-2.1-2-3.8-3.5-5.3
	c-1.4-1.4-3.1-2.6-5-3.4c-1.9-0.8-3.9-1.2-5.9-1.2c-2.1,0-4.1,0.4-5.9,1.1c-1.9,0.8-3.6,1.9-5,3.3c-1.4,1.4-2.6,3.2-3.5,5.3
	s-1.3,4.4-1.3,7.1s0.4,5,1.3,7.1c0.9,2.1,2,3.8,3.5,5.3c1.4,1.4,3.1,2.5,5,3.3C402,349.5,404,349.9,406.1,349.9z M446.1,317.1h-10.3
	v-13.4h10.3v-18h15.7v18h14.4v13.4h-14.4v22.8c0,1.4,0.1,2.6,0.4,3.8c0.3,1.2,0.8,2.1,1.6,2.9c1.1,1.3,2.7,1.9,4.8,1.9
	c1.4,0,2.4-0.1,3.2-0.4c0.8-0.3,1.6-0.7,2.3-1.1l4.4,13.8c-1.9,0.9-3.9,1.6-5.9,2c-2.1,0.4-4.5,0.7-7,0.7c-3,0-5.6-0.5-8-1.4
	c-2.4-0.9-4.3-2.2-5.9-3.8c-3.8-3.6-5.6-8.7-5.6-15.4C446.1,342.9,446.1,317.1,446.1,317.1z M491.6,295.2c-1.3,0-2.7-0.3-3.9-0.8
	c-1.2-0.5-2.3-1.2-3.2-2.2c-0.9-0.9-1.6-2-2.2-3.2c-0.5-1.2-0.8-2.5-0.8-4c0-1.4,0.3-2.8,0.8-4c0.5-1.2,1.2-2.3,2.2-3.2
	c0.9-0.9,2-1.7,3.2-2.2c1.2-0.5,2.6-0.8,3.9-0.8c2.8,0,5.2,1,7.2,2.9c2,2,3,4.3,3,7.1c0,2.8-1,5.2-3,7.1S494.4,295.2,491.6,295.2z
	 M483.8,362.5v-58.8h15.7v58.8L483.8,362.5L483.8,362.5z M535.6,301.8c4.6,0,8.7,0.8,12.5,2.3c3.8,1.6,7.1,3.7,9.8,6.5
	c2.8,2.8,4.9,6.1,6.5,9.9c1.6,3.8,2.3,8,2.3,12.6s-0.8,8.8-2.3,12.6c-1.6,3.8-3.7,7.1-6.5,9.9c-2.8,2.8-6,4.9-9.8,6.5
	c-3.8,1.6-8,2.3-12.5,2.3c-4.6,0-8.7-0.8-12.5-2.3c-3.8-1.6-7.1-3.7-9.8-6.5c-2.8-2.8-4.9-6.1-6.5-9.9c-1.6-3.8-2.3-8-2.3-12.6
	c0-4.6,0.8-8.8,2.3-12.6c1.6-3.8,3.7-7.1,6.5-9.9c2.8-2.8,6-4.9,9.8-6.5C526.9,302.6,531.1,301.8,535.6,301.8L535.6,301.8z
	 M535.6,349.9c2,0,3.9-0.4,5.8-1.1c1.9-0.8,3.6-1.9,5-3.3c1.4-1.4,2.6-3.2,3.4-5.3c0.8-2.1,1.3-4.4,1.3-7.1s-0.4-5-1.3-7.1
	c-0.8-2.1-2-3.8-3.4-5.3c-1.4-1.4-3.1-2.5-5-3.3c-1.8-0.8-3.8-1.1-5.8-1.1c-2.1,0-4,0.4-5.9,1.1c-1.8,0.8-3.5,1.9-4.9,3.3
	c-1.4,1.4-2.6,3.2-3.4,5.3c-0.8,2.1-1.3,4.4-1.3,7.1s0.4,5,1.3,7.1c0.8,2.1,2,3.8,3.4,5.3c1.4,1.4,3.1,2.5,4.9,3.3
	C531.6,349.5,533.5,349.9,535.6,349.9z M584.9,311.4h1c1.8-3,4.3-5.3,7.4-7c3.1-1.7,6.7-2.6,10.7-2.6c3.7,0,6.9,0.6,9.7,1.8
	c2.8,1.2,5.1,2.9,6.9,5.1c1.8,2.2,3.2,4.8,4.1,7.9c0.9,3.1,1.4,6.5,1.4,10.3v35.6h-15.7v-33.7c0-4.2-0.9-7.4-2.8-9.4
	c-1.9-2-4.6-3.1-8.2-3.1c-2.2,0-4.1,0.5-5.7,1.4c-1.6,0.9-3.1,2.2-4.2,3.7c-1.2,1.6-2,3.4-2.6,5.5c-0.6,2.1-0.9,4.4-0.9,6.8v28.8
	h-15.7v-58.8h14.8L584.9,311.4L584.9,311.4z"/>
</svg>
